<?xml version="1.0" encoding="UTF-8" standalone="no"?>
<!-- Generator: Adobe Illustrator 26.0.1, SVG Export Plug-In . SVG Version: 6.00 Build 0)  -->

<svg
   version="1.1"
   id="svg8"
   x="0px"
   y="0px"
   viewBox="0 0 240 240"
   style="enable-background:new 0 0 240 240;"
   xml:space="preserve"
   sodipodi:docname="minimize_focus_hover.svg"
   inkscape:version="1.2.1 (9c6d41e410, 2022-07-14)"
   xmlns:inkscape="http://www.inkscape.org/namespaces/inkscape"
   xmlns:sodipodi="http://sodipodi.sourceforge.net/DTD/sodipodi-0.dtd"
   xmlns="http://www.w3.org/2000/svg"
   xmlns:svg="http://www.w3.org/2000/svg"><defs
   id="defs10" />
<style
   type="text/css"
   id="style2">
	.st0{fill:#E7A174;}
</style>
<sodipodi:namedview
   bordercolor="#666666"
   borderopacity="1.0"
   id="base"
   inkscape:current-layer="layer1"
   inkscape:cx="201.12484"
   inkscape:cy="118.84649"
   inkscape:document-rotation="0"
   inkscape:document-units="mm"
   inkscape:pagecheckerboard="true"
   inkscape:pageopacity="0.0"
   inkscape:pageshadow="2"
   inkscape:window-height="1049"
   inkscape:window-maximized="1"
   inkscape:window-width="1916"
   inkscape:window-x="0"
   inkscape:window-y="27"
   inkscape:zoom="1.0391556"
   pagecolor="#ffffff"
   showgrid="false"
   units="px"
   inkscape:showpageshadow="2"
   inkscape:deskcolor="#d1d1d1">
	</sodipodi:namedview>
<g
   id="layer1"
   inkscape:groupmode="layer"
   inkscape:label="Layer 1">
	<g
   id="g2168">
		<path
   id="path2170"
   class="st0"
   d="M103.9,69.9h32.2c18.8,0,34,15.2,34,34v32.2c0,18.8-15.2,34-34,34h-32.2c-18.8,0-34-15.2-34-34    v-32.2C69.9,85.1,85.1,69.9,103.9,69.9z" />
		<path
   id="path2172"
   class="st0"
   d="M54,20c-18.8,0-34,15.2-34,34v15.9V186c0,18.8,15.2,34,34,34h132c18.8,0,34-15.2,34-34V54    c0-18.8-15.2-34-34-34H54z M119.8,119.8h0.3v0.3h-0.3V119.8z" />
	</g>
<rect
   style="fill:none;stroke:#000706;stroke-width:10.0535;stroke-linecap:round;stroke-linejoin:round;stroke-opacity:0.993879;paint-order:stroke fill markers"
   id="rect291"
   width="152.22585"
   height="3.9611113"
   x="44.695419"
   y="115.94926" /></g>
</svg>
